<?xml version="1.0" encoding="UTF-8"?>
<svg width="506px" height="487px" viewBox="0 0 506 487" version="1.1" xmlns="http://www.w3.org/2000/svg" xmlns:xlink="http://www.w3.org/1999/xlink">
    <!-- Generator: Sketch 63.1 (92452) - https://sketch.com -->
    <title>Group 37</title>
    <desc>Created with Sketch.</desc>
    <defs>
        <linearGradient x1="50%" y1="0%" x2="50%" y2="80.1452637%" id="linearGradient-1">
            <stop stop-color="#D300FC" offset="0%"></stop>
            <stop stop-color="#D300FC" stop-opacity="0" offset="100%"></stop>
        </linearGradient>
        <linearGradient x1="50%" y1="0%" x2="50%" y2="86.5219529%" id="linearGradient-2">
            <stop stop-color="#D300FC" offset="0%"></stop>
            <stop stop-color="#D300FC" stop-opacity="0" offset="100%"></stop>
        </linearGradient>
        <linearGradient x1="50%" y1="0%" x2="50%" y2="74.6421518%" id="linearGradient-3">
            <stop stop-color="#D300FC" offset="0%"></stop>
            <stop stop-color="#D300FC" stop-opacity="0" offset="100%"></stop>
        </linearGradient>
    </defs>
    <g id="Page-1" stroke="none" stroke-width="1" fill="none" fill-rule="evenodd">
        <g id="Group-37" transform="translate(3.000000, 3.000000)" fill-rule="nonzero">
            <g id="noun-honeycomb-2619932">
                <polygon id="Path" stroke="#D300FC" stroke-width="5" points="420.541667 333.079167 499.991667 287.225 499.991667 195.458333 420.541667 149.604167 341.15 195.458333 341.15 287.225"></polygon>
                <polygon id="Path" fill-opacity="0.855371435" fill="#D300FC" points="251.391667 333.475 330.841667 287.620833 330.841667 195.854167 251.391667 150 172 195.854167 172 287.620833"></polygon>
                <g id="noun-marijuana-143" opacity="0.852721441" transform="translate(198.000000, 191.000000)" fill="#000000">
                    <path d="M54.5049,81.8739 C61.27776,86.46813 73.9998,92.5263 91.1754,91.9683 C91.1754,91.9683 81.8091,82.737 67.3731,79.02 C90.5688,79.166952 108,66.0429 108,66.0429 C89.7957,62.99415 75.0015,66.381102 65.2203,70.16112 C89.7003,53.59482 97.5114,26.44812 97.5114,26.44812 C79.5573,35.47692 68.0553,47.62782 60.9408,57.83652 C62.82522,42.80832 62.32635,22.62492 53.69823,0.02052 C53.69823,0.02052 40.93893,25.77042 45.07758,56.97972 C37.9215,46.95552 26.56188,35.22672 9.10908,26.44902 C9.10908,26.44902 16.59456,52.47162 39.88548,69.10902 C30.18078,65.80332 16.49178,63.28152 0.00018,66.04308 C0.00018,66.04308 16.92468,78.78618 39.61638,79.01568 C25.17498,82.72962 15.80328,91.96668 15.80328,91.96668 C33.15258,92.531637 45.64908,86.30649 52.19568,81.95148 C52.19568,81.95148 50.86395,93.86568 54.74664,101.49948 L56.5533,101.162682 C56.5533,101.162682 52.80813,90.059382 54.50373,81.872982 L54.5049,81.8739 Z" id="Path"></path>
                </g>
                <polygon id="Path" stroke="#D300FC" stroke-width="5" fill="url(#linearGradient-1)" points="79.45 333.495833 158.841667 287.641667 158.841667 195.875 79.45 150.020833 0 195.875 0 287.641667"></polygon>
                <polygon id="Path" stroke="#D300FC" stroke-width="5" fill="url(#linearGradient-2)" points="165.45 183.475 244.9 137.620833 244.9 45.8541667 165.45 0 86 45.8541667 86 137.620833"></polygon>
                <polygon id="Path" fill-opacity="0.663164472" fill="#D300FC" points="336.158333 183.616667 415.608333 137.7625 415.608333 45.9958333 336.158333 0.141666667 256.766667 45.9958333 256.766667 137.7625"></polygon>
                <polygon id="Path" stroke="#D300FC" stroke-width="5" points="165.608333 480.708333 245.058333 434.854167 245.058333 343.0875 165.608333 297.233333 86.1583333 343.025 86.1583333 434.854167"></polygon>
                <polygon id="Path" stroke="#D300FC" stroke-width="5" fill="url(#linearGradient-3)" points="336.058333 480.558333 415.508333 434.704167 415.508333 342.9375 336.058333 297.083333 256.666667 342.875 256.666667 434.704167"></polygon>
            </g>
            <g id="noun-circuit-2104170" transform="translate(109.000000, 44.000000)" fill="#000000">
                <path d="M36.8187567,55.5683126 C37.1816526,55.2065805 37.6719957,54.9897719 38.2190551,54.9897719 C38.7653485,54.9897719 39.2665435,55.2069684 39.6185577,55.5636476 C39.9740732,55.9187751 40.2013755,56.4133954 40.2013755,56.9573812 C40.2013755,57.3319346 40.0851979,57.6897876 39.8955936,57.9956192 L39.7308561,58.2143673 L39.7308561,73.2577776 C39.7269707,73.5476348 39.6185677,73.8409833 39.3967062,74.0601194 L32.7953705,80.6276362 C32.5847787,80.8708632 32.2789968,81.0216156 31.9355268,81.0216156 L17.556557,81.0216156 L17.556557,91.7600881 L17.7267353,91.98933 C17.9233421,92.2939481 18.0352426,92.6552924 18.0352426,93.0329393 C18.0352426,93.577681 17.8118295,94.0707794 17.4532007,94.4274686 C17.0883552,94.7798806 16.5960725,94.9994046 16.050913,94.9994046 C15.5318139,94.9994046 15.0601307,94.7954174 14.700746,94.4655446 L14.6607264,94.4274676 C14.2986063,94.0622342 14.0779086,93.5691756 14.0779086,93.0329383 C14.0779086,92.6358455 14.2022426,92.2612921 14.410109,91.9528246 L14.5876777,91.7228068 L14.5876777,79.1969098 C14.5876777,78.5756281 15.0993864,78.0677589 15.7260791,78.0677589 L31.1822781,78.0677589 L36.7640756,72.506551 L36.7640756,58.2837447 L36.576023,58.0510114 C36.3646553,57.7378491 36.2438227,57.3594065 36.2438227,56.9580665 C36.2445998,56.4183777 36.4645204,55.9252992 36.8180863,55.56861 M81.0083527,9.79283737 C80.7080117,9.97662281 80.3544358,10.0819088 79.9833438,10.0819088 C79.4922248,10.0819088 79.0395697,9.9082292 78.6848003,9.60244732 L78.5849452,9.51113947 C78.2286539,9.15484817 78.0095079,8.65984 78.0095079,8.11631176 C78.0095079,7.63257321 78.1909559,7.18458316 78.4928585,6.83219098 L78.5845553,6.72767091 C78.9361915,6.3729313 79.4366306,6.150294 79.9829638,6.150294 C80.359069,6.150294 80.7145944,6.26180661 81.0212018,6.44947126 L81.3141624,6.67172064 L87.3983685,6.67172064 L87.6171166,6.48910892 C87.9528182,6.26220448 88.3421425,6.1234876 88.7497489,6.1234876 C89.297982,6.1234876 89.7964416,6.35156575 90.1512409,6.70552952 C90.5106455,7.0552162 90.7340587,7.55488938 90.7340587,8.09846735 C90.7340587,8.63738032 90.5106455,9.13272668 90.1512409,9.48901798 C89.788345,9.84143005 89.2983898,10.0644553 88.7497489,10.0644553 C88.4167628,10.0644553 88.0931066,9.97275851 87.8141411,9.81928867 L87.5231201,9.63201194 L81.239582,9.63201194 L81.0083527,9.79283737 Z M45.0569495,25.8478285 C44.6987086,25.4930889 44.4780209,24.9984686 44.4780209,24.4548907 C44.4780209,24.0873297 44.5941985,23.7259855 44.7791378,23.4294839 L44.9407719,23.2041312 L44.9407719,17.4303621 L44.7698077,17.2096644 C44.5650447,16.8933887 44.4461516,16.5258278 44.4461516,16.1399947 C44.4461516,15.5937013 44.6668493,15.1057354 45.0297452,14.7454654 C45.3879861,14.3930534 45.8798809,14.1677006 46.4188038,14.1677006 C46.9650973,14.1677006 47.4648003,14.3930534 47.8183065,14.7454654 C48.1718823,15.1079734 48.3972351,15.6053091 48.3972351,16.1399947 C48.3972351,16.5304828 48.283007,16.8995955 48.0770703,17.2096644 L47.9068919,17.4303621 L47.9068919,23.1268452 L48.0864003,23.3560871 C48.3004834,23.6704232 48.4287065,24.0492537 48.4287065,24.4549006 C48.4287065,24.9895365 48.206845,25.4825951 47.8486141,25.8388864 C47.4837687,26.2041198 46.9938134,26.4201525 46.4576656,26.4201525 C45.959942,26.4201525 45.5107882,26.2398683 45.1591221,25.9414669 L45.0569495,25.8478285 Z M56.4717985,65.8366029 C56.7880742,65.6287365 57.1595243,65.5098335 57.5600685,65.5098335 C58.101309,65.5098335 58.5889566,65.7250903 58.9471378,66.0837091 C59.3146987,66.4462171 59.5307314,66.9420011 59.5307314,67.476647 C59.5307314,68.0198271 59.3146987,68.5136914 58.9580195,68.8703805 C58.5997786,69.2243443 58.1051683,69.4481454 57.5596109,69.4481454 L57.1803925,69.4089026 L57.1803925,79.9046752 C57.1803925,80.5278966 56.6698475,81.0369097 56.0430852,81.0369097 L55.1812919,81.0369097 L54.9435058,81.221471 C54.6283939,81.4180777 54.2569537,81.5323058 53.8703548,81.5323058 C53.3298902,81.5323058 52.8310227,81.3096685 52.4747314,80.9537651 C52.1184401,80.5990255 51.8926894,80.1098461 51.8926894,79.5673921 C51.8926894,79.0502426 52.1087221,78.5797133 52.4308266,78.2253815 L52.4747324,78.1834183 C52.8376283,77.8216861 53.3295331,77.6009884 53.8703558,77.6009884 L54.2118862,77.6340145 L54.2118862,67.1511726 C54.2118862,66.5248379 54.7263203,66.0174461 55.3510833,66.0174461 L56.2416226,66.0174461 L56.4717985,65.8366029 Z M1.81261556,42.0002974 L2.00066813,41.7691159 L2.00066813,40.108512 L1.85379496,39.9192956 C1.63853812,39.6072971 1.51342835,39.2238015 1.51342835,38.8224715 C1.51342835,38.281231 1.73606565,37.7904999 2.09429655,37.4360985 C2.45719247,37.0708651 2.94753563,36.8552303 3.49459496,36.8552303 C3.98299851,36.8552303 4.43953279,37.0351265 4.78647417,37.338193 L4.88671716,37.4318323 C5.24612178,37.781519 5.46758536,38.2811922 5.46758536,38.8220845 C5.46758536,39.2281094 5.33742266,39.5999474 5.13459922,39.9146316 L4.96830011,40.1283268 L4.96830011,41.8624369 L5.1252692,42.0893414 C5.3102184,42.3881307 5.42289478,42.7405428 5.42289478,43.1057961 C5.42289478,43.6544171 5.19481663,44.1400554 4.83813741,44.5014195 C4.48456156,44.8530558 3.9833367,45.0733556 3.44251396,45.0733556 C2.94750579,45.0733556 2.49407488,44.8884064 2.13929549,44.5903929 L2.0429367,44.5014166 C1.68742124,44.1396844 1.4640081,43.6543942 1.4640081,43.1057931 C1.4640081,42.7207459 1.58096156,42.3617292 1.77561876,42.0563153 L1.81261556,42.0002974 Z M44.2055108,44.100745 C44.5656912,43.7444537 45.0575861,43.5253077 45.5945694,43.5253077 C46.1428024,43.5253077 46.6328074,43.7440558 46.9948678,44.0964679 C47.3577637,44.4550967 47.5776855,44.9446541 47.5776855,45.4890079 C47.5776855,45.8927052 47.4560671,46.2668708 47.246649,46.5784715 L47.0620877,46.8154818 L47.0620877,80.1986434 C47.0620877,80.8292452 46.5496031,81.3355528 45.9302511,81.3355528 L42.0405886,81.3355528 L41.804742,81.5294342 C41.4857509,81.7613915 41.0917616,81.8946676 40.6690262,81.8946676 C40.1460479,81.8946676 39.6688841,81.692232 39.3107029,81.3577042 L39.2753454,81.3223466 C38.9124494,80.9590627 38.6886484,80.4613391 38.6886484,79.9290109 C38.6886484,79.3858308 38.9120615,78.8911707 39.2706903,78.5344816 C39.6289312,78.184019 40.116161,77.9633213 40.6690988,77.9633213 C41.0253901,77.9633213 41.3610917,78.0573486 41.6567777,78.2286997 L41.8801908,78.3825654 L44.0933347,78.3825654 L44.0937232,46.7520148 L43.9282,46.5293775 C43.7366461,46.2290364 43.6204685,45.8673043 43.6204685,45.4888517 C43.6204685,44.9744176 43.8357254,44.4976816 44.1628728,44.1405746 L44.2055108,44.100745 Z M78.7285658,28.4774413 C79.085633,28.8302413 79.3082703,29.3291287 79.3082703,29.8730647 C79.3082703,30.2048772 79.2204597,30.5281454 79.0611541,30.8090704 L78.8439577,31.1346661 L78.8439577,31.7190356 L81.0124408,31.7190356 L83.5523342,29.2009255 C83.7559335,28.9914974 84.0450049,28.8659997 84.3605047,28.8659997 L86.1920926,28.8659997 L86.4155058,28.6923201 C86.7224514,28.5031038 87.0872969,28.3873141 87.4707527,28.3873141 C88.0182099,28.3873141 88.5147598,28.6080118 88.8710511,28.964691 C89.2219015,29.3209823 89.4511434,29.8140509 89.4511434,30.3533518 C89.4511434,30.8856601 89.2331712,31.3694086 88.8869758,31.7283855 L88.8710451,31.7415957 C88.5108647,32.1033279 88.0096398,32.3248014 87.4707467,32.3248014 C87.0919162,32.3248014 86.7224156,32.2090117 86.4185833,32.0135787 L86.1594217,31.8216369 L85.1146188,31.8216369 L82.5786046,34.3494948 C82.3707382,34.5534821 82.0894252,34.6836448 81.7731496,34.6836448 L77.0095687,34.6836448 C76.3843979,34.6836448 75.8722615,34.1707723 75.8722615,33.5467353 L75.8718728,31.1870764 L75.689649,30.9605599 C75.4806089,30.6477854 75.3554991,30.2736199 75.3554991,29.8725883 C75.3554991,29.3286224 75.5789123,28.8297748 75.932876,28.4769648 C76.295772,28.1206735 76.7849513,27.8984242 77.3292952,27.8984242 C77.8231297,27.8984242 78.2882181,28.0810359 78.6363929,28.3926565 L78.7285658,28.4774413 Z M86.1482177,56.76888 L85.7289836,56.358578 C85.5253843,56.1518754 85.3959974,55.8659074 85.3959974,55.5546846 L85.3959974,50.0043187 C85.4010486,49.7175748 85.5121751,49.4312189 85.7289836,49.2097454 L85.8991619,49.0356779 C85.9150926,48.5185283 86.1365601,48.0464473 86.4812038,47.7072942 C86.8413843,47.34595 87.334055,47.1233127 87.8815022,47.1233127 C88.4173019,47.1233127 88.9177509,47.34595 89.2736443,47.7072942 C89.6299356,48.0635855 89.8537367,48.5539287 89.8537367,49.0924736 C89.8537367,49.6107869 89.6458703,50.0875429 89.3121083,50.4372693 L89.2740313,50.4780668 C89.0183709,50.729838 88.7098636,50.9097343 88.3609528,51.001821 L88.3609528,54.7120448 C88.7883531,54.7641098 89.1784533,54.9521684 89.4760789,55.2288064 L89.5153216,55.268826 C89.8716129,55.6367748 90.1008548,56.122453 90.1008548,56.6570889 C90.1008548,57.147432 89.9147419,57.6020267 89.6116755,57.9524494 L89.5207565,58.0523045 C89.1644652,58.4140367 88.6667416,58.6355102 88.1212539,58.6355102 C87.6320745,58.6355102 87.1755402,58.4455081 86.8235061,58.1463308 L86.7224872,58.0523035 C86.3914507,57.7251461 86.1746421,57.2771561 86.1482237,56.7689785 L86.1482177,56.76888 Z M50.924914,22.045896 C50.7306447,21.7408899 50.6179683,21.3822612 50.6179683,21.0030825 C50.6179683,20.4595145 50.8398298,19.9695194 51.1980607,19.6085532 C51.5528003,19.2584786 52.0466347,19.0381688 52.5917942,19.0381688 C53.084077,19.0381688 53.5386717,19.2203926 53.8836735,19.5168544 L53.9905211,19.614379 C54.3452607,19.9691186 54.572563,20.4633509 54.572563,21.0026418 C54.572563,21.4086667 54.4455136,21.7832301 54.2360855,22.0951889 L54.0581289,22.3178262 L54.0581289,23.7083768 L54.2360855,23.9267371 C54.4455136,24.2434006 54.572563,24.6195058 54.572563,25.0274404 C54.572563,25.54459 54.3631349,26.0151193 54.0309346,26.3690532 L53.990915,26.4114043 C53.6307345,26.7661439 53.1337867,26.9934463 52.5925064,26.9934463 C52.0473768,26.9934463 51.5531743,26.770421 51.1987729,26.4160693 C50.840532,26.0613297 50.6186805,25.5624423 50.6186805,25.0274086 C50.6186805,24.648966 50.730969,24.2876217 50.9256261,23.980318 L51.0911494,23.7530157 L51.0911494,22.2711542 L50.924914,22.045896 Z M109.323067,37.4861802 C109.681308,37.8424715 109.907824,38.3374796 109.907824,38.8814058 C109.907824,39.2823777 109.784654,39.6612082 109.574838,39.9708693 L109.388725,40.2004992 L109.388725,41.5779201 L109.574838,41.80755 C109.780765,42.1304303 109.907824,42.5088729 109.907824,42.8966157 C109.907824,43.4405816 109.681308,43.9402249 109.323067,44.2899514 C108.962886,44.6392502 108.473707,44.8673283 107.932118,44.8673283 C107.391654,44.8673283 106.887315,44.6443031 106.536495,44.2899514 C106.173599,43.9352118 105.95679,43.4405915 105.95679,42.8966157 C105.95679,42.5496445 106.051983,42.2127791 106.220607,41.9275869 L106.42731,41.6260821 L106.42731,40.1507855 L106.257907,39.9192161 C106.064026,39.6099329 105.95679,39.2505283 105.95679,38.8806796 C105.95679,38.3367137 106.173987,37.8417454 106.536495,37.4854541 C106.887345,37.1353795 107.391683,36.9104146 107.932118,36.9104146 C108.424013,36.9104146 108.885212,37.0976914 109.232154,37.4026974 L109.323067,37.4861802 Z M108.889062,45.5095976 C109.205337,45.3106633 109.574838,45.1840018 109.967683,45.1840018 C110.460354,45.1840018 110.912621,45.3708907 111.261552,45.66968 L111.369175,45.7675935 C111.724691,46.1176681 111.949268,46.6103487 111.949268,47.1562542 C111.949268,47.7002201 111.724691,48.192105 111.369175,48.5487942 C111.01171,48.9054734 110.5171,49.1242315 109.967683,49.1242315 C109.595457,49.1242315 109.240718,49.0142706 108.940387,48.8301071 L108.682389,48.6373896 L92.9307726,48.6373896 C92.6444166,48.6373896 92.3580607,48.5270407 92.1346475,48.3032396 L89.3864699,45.5780389 L85.0806369,45.5780389 L84.8599392,45.749391 C84.5529935,45.949489 84.1827072,46.0726592 83.7906674,46.0726592 C83.2463136,46.0726592 82.7478539,45.8453569 82.3938504,45.4882897 C82.0387228,45.1386031 81.809093,44.6389299 81.809093,44.1000269 C81.809093,43.6170642 81.9963697,43.1640212 82.2974966,42.811629 L82.3938553,42.7047814 C82.7478191,42.3527572 83.2463186,42.1293441 83.7906724,42.1293441 C84.1827122,42.1293441 84.5533864,42.2501768 84.8646191,42.4479473 L85.0899719,42.6243423 L90.1433999,42.6243423 C90.4285921,42.6286163 90.7176635,42.7405199 90.939525,42.9542151 L93.6834255,45.6822009 L108.657209,45.6822009 L108.889062,45.5095976 Z M98.1804294,58.7248018 L103.923065,64.4390896 C104.358622,64.465899 104.761156,64.646956 105.077381,64.918939 L105.185005,65.0118005 C105.540132,65.3677039 105.761218,65.8619362 105.761218,66.4047383 C105.761218,66.9417017 105.54052,67.4393955 105.1784,67.7911113 C104.822109,68.1481785 104.327101,68.369652 103.783573,68.369652 C103.241168,68.369652 102.74424,68.1477906 102.389839,67.7911113 C102.061518,67.4565735 101.84083,67.0066438 101.813626,66.5073884 L96.6211427,61.3420598 L78.0864358,61.3420598 C77.456222,61.3420598 76.944553,60.830739 76.944553,60.2098254 L76.944553,50.049257 L74.2768443,50.049257 L74.0456628,50.2338183 C73.730163,50.4409088 73.3505566,50.5683561 72.9519221,50.5683561 C72.4056287,50.5683561 71.907915,50.3449429 71.5535136,49.9832108 C71.1952728,49.6234183 70.9668166,49.1354126 70.9668166,48.5957437 C70.9668166,48.0556669 71.1995498,47.5564115 71.5581786,47.2074808 C71.9136941,46.8453607 72.4114177,46.6227234 72.9519122,46.6227234 C73.3315186,46.6227234 73.691699,46.734236 73.9994006,46.9308428 L74.2200983,47.0955802 L78.7719136,47.0955802 C79.4025154,47.0955802 79.910315,47.6034097 79.910315,48.2324897 L79.910315,58.3831113 L97.3757502,58.3831113 C97.6659953,58.3877738 97.9570163,58.498901 98.1804195,58.7242538 L98.1804294,58.7248018 Z M10.0575164,27.2782654 C9.74046494,27.4919606 9.3662994,27.6104658 8.96109016,27.6104658 C8.47386032,27.6104658 8.01731609,27.4259045 7.67498004,27.1310043 L7.56463119,27.0377539 C7.21105535,26.6791251 6.98376298,26.1903436 6.98376298,25.6444182 C6.98376298,25.1055052 7.21106529,24.6101589 7.56463119,24.2608303 C7.92287204,23.899874 8.4194319,23.6741333 8.96144824,23.6741333 C9.31502409,23.6741333 9.6464486,23.7704921 9.93746956,23.9371741 L10.2331555,24.1396097 L18.6964166,24.1396097 L22.8646866,19.9942171 C23.067898,19.7537056 23.3791207,19.5979002 23.7218148,19.5979002 L34.6612109,19.5979002 L34.8838482,19.4413191 C35.1888543,19.2680274 35.5323243,19.165069 35.90458,19.165069 C36.4442688,19.165069 36.9420223,19.3818775 37.2994077,19.7358413 C37.6568728,20.0921326 37.8775605,20.5824757 37.8775605,21.1263919 C37.8775605,21.6151834 37.6914475,22.0623976 37.3918823,22.4147898 L37.2955236,22.5150328 C36.9419477,22.8697724 36.4407228,23.0970747 35.9045751,23.0970747 C35.4872806,23.0970747 35.0983442,22.9587557 34.7820884,22.7423351 L34.5567356,22.5577738 L24.4777303,22.5581623 L20.3062774,26.7058426 C20.1022902,26.9490696 19.7918433,27.0936053 19.4444841,27.0936053 L10.2935072,27.0932167 L10.0575164,27.2782654 Z M17.7374738,14.38434 C17.4324678,14.5735564 17.0722873,14.6889582 16.6961523,14.6889582 C16.1525843,14.6889582 15.6625893,14.4636054 15.3024188,14.1123571 C14.9414625,13.7576175 14.7188252,13.2606697 14.7188252,12.7236963 C14.7188252,12.1731258 14.9414625,11.6808828 15.2923129,11.3303606 C15.6625992,10.9697923 16.1529324,10.75182 16.6964905,10.75182 C17.0481267,10.75182 17.3884834,10.8493445 17.6795044,11.0164225 C17.8038383,11.090246 17.9029175,11.1730036 18.0190951,11.2596494 L37.0421857,11.2596494 C37.6727875,11.2596494 38.1825765,11.7678669 38.1825765,12.3965589 L38.1825765,17.183415 L41.2687434,20.2544629 C41.509255,20.459226 41.666612,20.7669475 41.666612,21.1146946 L41.666612,29.3001439 L42.954612,29.3001439 L43.1857935,29.1155827 C43.5020692,28.9030512 43.8816756,28.7853219 44.2888841,28.7853219 C44.8351775,28.7853219 45.3271221,28.999405 45.6891825,29.3560942 C46.0392571,29.7170505 46.2673353,30.2050661 46.2673353,30.7513198 C46.2673353,31.2948878 46.0474234,31.7895578 45.6891825,32.1418704 C45.3235612,32.4935066 44.8266134,32.7165219 44.2888841,32.7165219 C43.9092777,32.7165219 43.564644,32.6100622 43.2589019,32.4293901 L43.0288841,32.2576502 L39.8354916,32.2576502 C39.2099328,32.2576502 38.6943051,31.7471052 38.6943051,31.1250178 L38.6943051,21.8629361 L35.6108237,18.7872132 C35.3695363,18.583226 35.2172323,18.2751166 35.2172323,17.9277574 L35.2172323,14.2191251 L17.9656514,14.2187365 L17.7374738,14.38434 Z M41.3887704,12.4443329 C41.0266504,12.0860921 40.8098418,11.5984743 40.8098418,11.0537823 C40.8098418,10.5195344 41.0270383,10.0202193 41.3887704,9.66323169 C41.7481751,9.30694039 42.2420095,9.0889681 42.7902625,9.0889681 C43.1791989,9.0889681 43.5393694,9.20669741 43.8548593,9.40952085 L44.0767207,9.57698373 L50.4255093,9.57698373 L50.6613559,9.39164661 C50.9745182,9.18221854 51.3510212,9.05944625 51.7585779,9.05944625 C52.2990426,9.05944625 52.7968159,9.27509101 53.1600699,9.63254607 C53.5128699,9.98612192 53.731618,10.4795685 53.731618,11.025086 C53.731618,11.5709915 53.5128699,12.0574555 53.1600699,12.4137468 C52.792509,12.770426 52.2955612,12.9911237 51.7585779,12.9911237 C51.4003371,12.9911237 51.0646355,12.8908807 50.7782795,12.7238058 L50.5012436,12.5299244 L44.0876024,12.5299244 L43.8548692,12.7043798 C43.5440344,12.908367 43.1795768,13.0249326 42.7902724,13.0249326 C42.2420394,13.0245441 41.7403967,12.8019074 41.3887804,12.4444523 L41.3887704,12.4443329 Z M22.8928557,8.50453897 C22.5750283,8.70930202 22.2063037,8.82974679 21.8170191,8.82974679 C21.2687861,8.82974679 20.777687,8.60710948 20.4232855,8.25004234 C20.0650447,7.89607858 19.8431932,7.40107041 19.8431932,6.86217734 C19.8431932,6.31821144 20.0650546,5.82324306 20.4232855,5.46884163 C20.7780252,5.11255034 21.2687562,4.89612973 21.8170191,4.89612973 C22.1966255,4.89612973 22.556806,5.00531481 22.8637118,5.1918157 L23.1143193,5.38375744 L29.4576372,5.38375744 L29.69232,5.19648071 C30.0085957,4.98705265 30.3843129,4.8623308 30.7962063,4.8623308 C31.2884891,4.8623308 31.7364791,5.04533044 32.0842063,5.34412973 L32.1918298,5.44165428 C32.5469573,5.78940135 32.7692067,6.2840216 32.7692067,6.82762941 C32.7692067,7.31797258 32.5858092,7.76402302 32.2835285,8.11642515 L32.1883355,8.21860774 C31.8347596,8.57489904 31.3331469,8.79520881 30.7961934,8.79520881 C30.4538872,8.79520881 30.1290673,8.70856398 29.8504797,8.55081805 L29.5334282,8.33828661 L23.1143163,8.33828661 L22.8928557,8.50453897 Z M39.1825893,7.03779652 C38.8682532,7.25032796 38.4801026,7.37932689 38.0794987,7.37932689 C37.5370944,7.37932689 37.0475271,7.1586292 36.6904401,6.80194998 C36.3228791,6.43671659 36.1049069,5.94832298 36.1049069,5.41328924 C36.1049069,4.86777165 36.3294838,4.37505123 36.68112,4.02074927 C37.038585,3.66368213 37.5331953,3.44531197 38.0795285,3.44531197 C38.4509786,3.44531197 38.8018291,3.54828036 39.1103065,3.74177378 L39.3290546,3.89990664 L40.3544614,3.89990664 L40.5553353,3.76197556 C40.8556763,3.57702636 41.2026475,3.46979083 41.5779569,3.46979083 C42.1242504,3.46979083 42.6192784,3.69048853 42.9716905,4.04716774 C43.3345864,4.41745407 43.5572237,4.90507183 43.5572237,5.44199545 C43.5572237,5.95681748 43.3477957,6.43589101 43.0128699,6.78788533 L42.9716845,6.82363183 C42.6122799,7.18458813 42.1157201,7.40722544 41.577951,7.40722544 C41.1894124,7.40722544 40.8249549,7.29610075 40.5133542,7.09094977 L40.2017435,6.8527757 L39.4149385,6.8527757 L39.1825893,7.03779652 Z M57.1453601,15.7878214 C56.8318099,15.999577 56.4568585,16.1223592 56.0489339,16.1223592 C55.5298347,16.1223592 55.0534667,15.9129312 54.6952855,15.58462 L54.6568196,15.5422688 C54.2993546,15.1774234 54.0759514,14.6886418 54.0759514,14.1517182 C54.0759514,13.666428 54.2593489,13.2114454 54.5569645,12.8730681 L54.6533233,12.7615555 C55.0115642,12.4044884 55.508124,12.1814632 56.0489468,12.1814632 C56.1930946,12.1814632 56.3314136,12.1973938 56.4654654,12.2261458 L56.4650769,1.72042643 C56.4650769,1.09176426 56.974846,0.584312753 57.6062634,0.584312753 L58.6794144,0.584312753 L58.9133213,0.410633179 C59.2210528,0.207421812 59.5924929,0.0916420604 59.9825931,0.0916420604 C60.4717725,0.0916420604 60.922478,0.276591261 61.275268,0.575768526 L61.375511,0.669407886 C61.7349156,1.02181996 61.9602684,1.52070735 61.9602684,2.05995851 C61.9602684,2.6039244 61.7395707,3.09819652 61.375511,3.44593364 C61.0246606,3.80688995 60.5230478,4.02991517 59.9825732,4.02991517 C59.7929689,4.02991517 59.6084076,4.00271687 59.4296751,3.94560085 L59.4296751,14.4781763 C59.4296751,15.1025614 58.9218457,15.6126985 58.2900801,15.6126985 L57.3723366,15.6126985 L57.1453601,15.7878214 Z M89.2304756,17.5840985 L88.6251285,17.5840985 L88.3997758,17.7449567 C88.1005985,17.9275685 87.7458589,18.0383052 87.3708877,18.0383052 C86.8537381,18.0383052 86.3781559,17.8292651 86.0242021,17.4990043 L85.9806852,17.4597616 C85.6185651,17.0980294 85.3970916,16.6080742 85.3970916,16.0688131 C85.3970916,15.5248472 85.618953,15.0302767 85.9760202,14.6801523 C86.3323115,14.3215236 86.8331484,14.1035513 87.3705495,14.1035513 C87.7777481,14.1035513 88.1627854,14.2278852 88.478315,14.4400287 L88.7157133,14.6249779 L89.1392244,14.6249779 L89.3731314,14.4400287 C89.6882433,14.2282731 90.066298,14.0988863 90.4731385,14.0988863 C91.028752,14.0988863 91.5226163,14.3219115 91.8734369,14.6696585 C92.2343932,15.0306148 92.4531413,15.5248472 92.4531413,16.0644863 C92.4531413,16.6084521 92.2343932,17.1072998 91.8734369,17.4601097 C91.5225864,17.8136855 91.028742,18.0386504 90.4731385,18.0386504 C90.1044138,18.0386504 89.7527775,17.9275257 89.4458418,17.7453019 L89.2304756,17.5840985 Z M14.688806,20.0715727 C14.39312,20.2541844 14.0403299,20.361042 13.668472,20.361042 C13.1280074,20.361042 12.630234,20.1384047 12.2810049,19.7867784 C11.9142198,19.4258221 11.6896429,18.9261589 11.6896429,18.3915528 C11.6896429,17.8475869 11.9142198,17.3572935 12.2724607,17.0010022 C12.6252607,16.6462626 13.1218205,16.4255649 13.6680841,16.4255649 C14.078774,16.4255649 14.4548891,16.5553397 14.7738603,16.7647677 L15.0038781,16.9516566 L15.4312784,16.9516566 L15.6612962,16.7647677 C15.9775719,16.5553397 16.367672,16.4255649 16.774433,16.4255649 C17.3113964,16.4255649 17.8025253,16.6462626 18.1653815,16.9967251 C18.5228465,17.3572935 18.7474234,17.8515258 18.7474234,18.3915528 C18.7474234,18.9351209 18.5228465,19.4258121 18.1747115,19.7867784 C17.8118156,20.1384146 17.3113665,20.361042 16.7744131,20.361042 C16.3928671,20.361042 16.0400671,20.2541944 15.7436351,20.0676935 L15.5209978,19.9095606 L14.9214795,19.9095606 L14.688806,20.0715727 Z M27.441488,46.811324 L26.8396323,46.811324 L26.6150553,46.9663535 C26.3112131,47.1567436 25.9572493,47.2632033 25.5861672,47.2632033 C25.0398738,47.2632033 24.5433537,47.040566 24.1893502,46.6904914 C23.8357744,46.325258 23.6119733,45.8321994 23.6119733,45.2952658 C23.6119733,44.7516978 23.8353864,44.2610065 24.1893502,43.9047152 C24.5503065,43.5523031 25.0394859,43.3292779 25.5861672,43.3292779 C25.978207,43.3292779 26.3383875,43.4407905 26.6434035,43.6389489 L26.9258703,43.8553695 L27.3532706,43.8553695 L27.5832884,43.6723699 C27.899564,43.4543976 28.2838355,43.3246228 28.6918497,43.3246228 C29.2288131,43.3246228 29.7254127,43.542983 30.0839918,43.9043272 C30.4488372,44.2606185 30.6660337,44.7560146 30.6660337,45.2903024 C30.6660337,45.8202733 30.4535022,46.311432 30.1115839,46.6630484 L30.0909913,46.6809216 C29.7261458,47.0403263 29.2330872,47.2629636 28.6925827,47.2629636 C28.3211326,47.2629636 27.9601763,47.1565039 27.6636946,46.9661138 L27.441488,46.811324 Z M86.8333175,68.1589617 L86.2407918,68.1589617 L86.0092223,68.3213717 C85.7042163,68.5059329 85.3619101,68.6112288 84.985407,68.6112288 C84.4616529,68.6112288 83.9891442,68.4018008 83.6364337,68.0734896 L83.5890316,68.03347 C83.2335162,67.670962 83.0124306,67.1810067 83.0124306,66.6425215 C83.0124306,66.0993414 83.2288512,65.6089584 83.5890316,65.2503794 C83.9437712,64.8971915 84.4411069,64.679995 84.9854508,64.679995 C85.3926494,64.679995 85.77147,64.8004398 86.0932163,65.0118075 L86.3232341,65.2056888 L86.7506345,65.2056888 L86.9845414,65.0211275 C87.296152,64.8004298 87.6811993,64.670665 88.0949925,64.670665 C88.6304043,64.670665 89.1222892,64.8933023 89.4832554,65.2503694 C89.8465393,65.6089982 90.066849,66.0993414 90.066849,66.6413179 C90.066849,67.1712888 89.8547055,67.6577726 89.5026813,68.0109805 L89.4879164,68.0288537 C89.1222951,68.3905859 88.6300124,68.6112836 88.0945807,68.6112836 C87.7421687,68.6112836 87.4060791,68.5207525 87.1197232,68.3521219 L86.8333175,68.1589617 Z M22.7337083,66.6412921 L22.1322404,66.6412921 L21.8991093,66.8017624 C21.6034234,66.9863237 21.2498575,67.0923955 20.8748962,67.0923955 C20.3499783,67.0923955 19.8806127,66.8837432 19.5278127,66.5589233 L19.4866274,66.5161833 C19.1245073,66.1556149 18.9030337,65.6637201 18.9030337,65.1279204 C18.9030337,64.5890075 19.1202302,64.0982366 19.4831261,63.7404533 C19.8433066,63.3779453 20.337141,63.1560838 20.8752682,63.1560838 C21.2540988,63.1560838 21.6135034,63.2672085 21.9173854,63.4599261 L22.2177265,63.6817876 L22.6435652,63.6817876 L22.8755226,63.4964504 C23.197627,63.2874103 23.579173,63.1564718 23.9859737,63.1564718 C24.5311034,63.1564718 25.023416,63.3783332 25.3815972,63.7264682 C25.7371126,64.089752 25.9589741,64.5847602 25.9589741,65.1244789 C25.9589741,65.6097691 25.7744128,66.0643638 25.4779609,66.4140703 L25.3816021,66.5162529 C25.0233613,66.8721563 24.5314664,67.092854 23.9859787,67.092854 C23.6098735,67.092854 23.2516327,66.9867822 22.9513215,66.802221 L22.7337083,66.6412921 Z M97.7379001,39.174436 L98.15792,39.174436 L98.3937665,38.9918242 C98.7092664,38.773464 99.0935378,38.6440772 99.503422,38.6440772 C100.045826,38.6440772 100.539671,38.8624374 100.890491,39.2230058 C101.259216,39.5824104 101.477188,40.0746931 101.477188,40.6135564 C101.477188,41.1617894 101.258828,41.6482136 100.900587,42.008782 C100.539631,42.3654612 100.049288,42.5818818 99.5033722,42.5818818 C99.1319221,42.5818818 98.7698021,42.4750342 98.4744841,42.28542 L98.2526227,42.1296146 L97.6484394,42.1296146 L97.4153083,42.29475 C97.120796,42.4750342 96.7691598,42.5822697 96.3984557,42.5822697 C95.9046212,42.5822697 95.457407,42.3973205 95.1112514,42.1028082 L94.9981871,42.0091689 C94.6481125,41.6528776 94.4246994,41.1621465 94.4246994,40.6139433 C94.4246994,40.0703753 94.6481125,39.5827675 94.9981871,39.2279682 C95.3591434,38.8716769 95.8560912,38.6482637 96.3984855,38.6482637 C96.8045104,38.6482637 97.1845047,38.7733735 97.5011783,38.9917337 L97.7379001,39.174436 Z M98.2523342,56.058983 L97.6481509,56.058983 L97.4262894,56.2155642 C97.1201196,56.4055663 96.7684834,56.5089127 96.3981971,56.5089127 C95.8771584,56.5089127 95.4012379,56.3041496 95.0433552,55.9738889 L95.0068318,55.9377545 C94.6474272,55.5686418 94.4240141,55.0794625 94.4240141,54.5440209 C94.4240141,54.000055 94.6474272,53.5097616 94.9975018,53.1502873 C95.3584581,52.7970994 95.8554059,52.5783513 96.3978002,52.5783513 C96.8038251,52.5783513 97.1838194,52.6976323 97.5004929,52.9097758 L97.7375032,53.1056067 L98.1621782,53.1056067 L98.3929718,52.9210454 C98.7084716,52.6976323 99.092743,52.5694092 99.5026272,52.5694092 C100.048921,52.5694092 100.538876,52.7904948 100.899842,53.1463982 C101.258083,53.5003619 101.476443,53.9953701 101.476443,54.539336 C101.476443,55.0798006 101.258083,55.5782703 100.899842,55.9377445 C100.543551,56.288207 100.048543,56.5089127 99.5026272,56.5089127 C99.1311771,56.5089127 98.7690571,56.39778 98.4737391,56.2155562 L98.2523342,56.058983 Z M71.2251228,6.74416952 C70.9220564,6.92678124 70.566541,7.03751801 70.1884763,7.03751801 C69.6693772,7.03751801 69.1938049,6.82421073 68.8367179,6.49860504 L68.8001945,6.45897336 C68.4388503,6.09490373 68.2166009,5.60728597 68.2166009,5.06842274 C68.2166009,4.52212931 68.4388503,4.02948845 68.7893128,3.67747425 C69.1568737,3.3204071 69.6526578,3.10243481 70.1884176,3.10243481 C70.5983317,3.10243481 70.9771622,3.22754458 71.2930002,3.43658472 L71.5315622,3.62813854 L71.9562372,3.62813854 L72.1862549,3.44086181 C72.5017547,3.22755453 72.8871899,3.09777975 73.2928269,3.09777975 C73.8391203,3.09777975 74.336834,3.31652789 74.6943189,3.67281918 C75.0494464,4.0294984 75.2666428,4.51751403 75.2666428,5.06376767 C75.2666428,5.55217123 75.0925753,6.00442842 74.7867935,6.35176767 L74.6943199,6.45861528 C74.3368548,6.81490657 73.8391312,7.03715595 73.2928279,7.03715595 C72.9241032,7.03715595 72.5662502,6.92603126 72.2639398,6.74380746 L72.0451916,6.57867211 L71.4406204,6.57867211 L71.2251228,6.74416952 Z M62.249407,25.0769582 L58.3942596,21.243594 C58.1521964,21.034166 58.0041594,20.7268324 58.0041594,20.3837503 L58.0041594,16.5414342 C58.0041594,15.912772 58.5131527,15.4053205 59.1437545,15.4053205 L60.7368202,15.4053205 L60.9606212,15.2440743 C61.2563072,15.0571855 61.6145381,14.9476125 61.9906035,14.9476125 C62.5368969,14.9476125 63.033417,15.1729653 63.389012,15.5296544 C63.7398625,15.8840061 63.9617239,16.3790143 63.9617239,16.9136402 C63.9617239,17.405923 63.784941,17.8562505 63.479925,18.2063152 L63.389006,18.3108352 C63.0338785,18.6679024 62.5369307,18.8905397 61.9905975,18.8905397 C61.6179837,18.8905397 61.2671332,18.7875713 60.9687716,18.6034079 L60.9687716,19.6252338 L63.8070664,22.4608431 L65.3278195,22.4608431 L65.3278195,17.7622143 L65.1529762,17.5306448 C64.9544298,17.2186463 64.8293201,16.8483599 64.8293201,16.4605773 C64.8293201,15.9399265 65.0371865,15.4647123 65.3709485,15.1146875 L65.4086376,15.0727243 C65.768818,14.7175967 66.2614887,14.4945715 66.8077424,14.4945715 C67.3470433,14.4945715 67.8358347,14.7175967 68.1986909,15.0657317 C68.5600351,15.426688 68.7815086,15.9170312 68.7815086,16.4605594 C68.7815086,16.8397779 68.6703839,17.2096664 68.4671726,17.5127228 L68.2985459,17.7446802 L68.2985459,24.2784777 C68.2985459,24.9075278 67.7841118,25.4153871 67.1601445,25.4153871 L63.0497644,25.4153871 C62.7571918,25.4111131 62.465395,25.2995974 62.2493623,25.0769701 L62.249407,25.0769582 Z M55.1584941,38.9038853 C54.8546518,39.0958271 54.500688,39.2003471 54.1210518,39.2003471 C53.6039022,39.2003471 53.1294838,38.9932566 52.7739683,38.6614342 L52.7320051,38.6233572 C52.3710488,38.2624009 52.1472477,37.7697302 52.1472477,37.2346964 C52.1472477,36.6845238 52.3706609,36.1945685 52.7261763,35.8417586 C53.0844172,35.4846914 53.5794154,35.2643817 54.121004,35.2643817 L54.4745799,35.296242 L54.4745799,24.8502029 C54.4745799,24.2308608 54.984349,23.7179685 55.6118872,23.7179685 L56.6088463,23.7179685 L56.8369245,23.5353567 C57.153976,23.3150569 57.5386353,23.1876097 57.9579191,23.1876097 C58.4762325,23.1876097 58.9533863,23.3923727 59.308484,23.7218576 L59.3488925,23.763043 C59.709073,24.1236114 59.9309344,24.6182316 59.9309344,25.1535936 C59.9309344,25.6967737 59.709073,26.1914337 59.3554971,26.5512064 C58.9926012,26.9001172 58.5006964,27.1231425 57.9582822,27.1231425 C57.7803255,27.1231425 57.606258,27.0990525 57.4380193,27.053982 L57.4380193,37.6064509 C57.4380193,38.235113 56.9305778,38.7425645 56.3003142,38.7425645 L55.3732506,38.7425645 L55.1584941,38.9038853 Z M53.2278369,41.327999 L64.9858475,41.327999 L65.2150894,41.1143038 C65.5566198,40.8551422 65.9727506,40.6993368 66.4292848,40.6993368 C66.9542028,40.6993368 67.4480273,40.91342 67.7989474,41.261167 L67.8183743,41.2770977 C68.1785547,41.6357265 68.401192,42.1307247 68.401192,42.6649627 C68.401192,43.2112561 68.1785547,43.703897 67.8280922,44.0605861 C67.4659721,44.4106607 66.9635835,44.6309705 66.4293853,44.6309705 C66.1057292,44.6309705 65.7991714,44.5489877 65.5194201,44.4106707 L65.3065007,44.280508 L53.0700531,44.280508 L52.8408112,44.4370892 C52.5544553,44.604552 52.2148645,44.7044071 51.8612887,44.7044071 C51.368618,44.7044071 50.9163508,44.5194579 50.567818,44.2257215 L50.4601945,44.1281969 C50.1000141,43.7753969 49.8793263,43.2811746 49.8793263,42.7418239 C49.8793263,42.188538 50.100024,41.6990104 50.4567032,41.3462005 C50.8141682,40.9899092 51.3153832,40.7676598 51.8616766,40.7676598 C52.2781952,40.7676598 52.6717867,40.9032634 52.9981881,41.1328932 L53.2278369,41.327999 Z M59.3605829,52.8204324 L59.3605829,56.4754519 C59.8019683,56.5100327 60.2052777,56.6872075 60.5142028,56.9630697 L60.6066764,57.0458293 C60.9687964,57.4025086 61.19027,57.8948013 61.19027,58.4406571 C61.19027,58.9818975 60.9649172,59.4749164 60.6066764,59.8362805 C60.2472718,60.1844155 59.7565407,60.4062769 59.2145343,60.4062769 C58.6954352,60.4062769 58.2163815,60.2034535 57.8581009,59.8708652 L57.8157498,59.8362845 C57.5126833,59.5258376 57.3079203,59.1337978 57.25197,58.6901246 L56.7297675,58.1729751 C56.5211153,57.963547 56.3967814,57.6803044 56.3967814,57.3710212 L56.3967814,51.8214511 C56.4006669,51.5319818 56.5125711,51.2390212 56.7297675,51.0191093 L56.9877654,50.7603356 C57.0188489,50.2731058 57.2341057,49.823942 57.5616411,49.4972024 C57.9299778,49.1475157 58.4214848,48.9241026 58.9619395,48.9241026 C59.5055075,48.9241026 60.0043551,49.141299 60.3587565,49.4972024 C60.7208766,49.8511662 60.9407984,50.3461744 60.9407984,50.8854653 C60.9407984,51.3800855 60.7574009,51.831179 60.4589995,52.1711775 L60.3626407,52.2823022 C60.0937711,52.5453431 59.750689,52.7384486 59.3606087,52.8204394 L59.3605829,52.8204324 Z M54.9844266,48.6948338 C55.339942,49.0441326 55.5680202,49.5438058 55.5680202,50.0830967 C55.5680202,50.5757674 55.3784159,51.0350271 55.0667953,51.3800487 L54.9844246,51.4725223 C54.6308487,51.8311511 54.1296239,52.0530026 53.5876075,52.0530026 C53.3797411,52.0530026 53.1710889,52.017645 52.9795351,51.9531476 L52.9795351,62.4916911 C52.9795351,63.1195774 52.4732672,63.6289984 51.8430235,63.6289984 L50.6392722,63.6289984 L50.406539,63.80229 C50.0995933,64.0043277 49.7188132,64.1255582 49.3325923,64.1255582 C48.7843592,64.1255582 48.2943542,63.9048605 47.9357752,63.5555618 C47.5783102,63.1984946 47.3583983,62.7054261 47.3583983,62.1575511 C47.3583983,61.6135852 47.5783102,61.1251817 47.9357752,60.7666026 C48.2940161,60.4173039 48.7843493,60.1938907 49.3325923,60.1938907 C49.5703784,60.1938907 49.8031216,60.2385734 50.0164288,60.3123959 L50.0164288,49.7400335 C50.0164288,49.113311 50.5273617,48.6051135 51.150951,48.6051135 L52.295221,48.6051135 L52.5186342,48.4333735 C52.8263656,48.2336634 53.1985816,48.1174852 53.5879059,48.1174852 C54.1291464,48.1170971 54.6307194,48.3331305 54.9843251,48.6948627 L54.9844266,48.6948338 Z M99.5904656,70.007658 C99.9141218,69.7749248 100.308101,69.6369837 100.733542,69.6369837 C101.251855,69.6369837 101.72705,69.8491272 102.082515,70.1762846 L102.125643,70.2163042 C102.481159,70.5807618 102.709237,71.0664399 102.709237,71.6072527 C102.709237,72.144992 102.481159,72.6369366 102.125643,72.9975049 C101.770904,73.3561337 101.272792,73.5799348 100.733501,73.5799348 C100.404404,73.5799348 100.093957,73.4952325 99.8157577,73.3479774 L99.5088121,73.1540961 L82.406432,73.1537074 L82.172525,73.3475888 C81.8574131,73.5589565 81.471978,73.6914467 81.0659531,73.6914467 C80.5721187,73.6914467 80.1256803,73.50417 79.7720845,73.2096478 L79.6664007,73.1117353 C79.3093336,72.7550561 79.0866963,72.2604358 79.0866963,71.7214831 C79.0866963,71.1763534 79.3093336,70.6929928 79.6664007,70.3370994 C80.0312462,69.9738156 80.5204156,69.7550575 81.0659034,69.7550575 C81.4233684,69.7550575 81.7656746,69.852582 82.0613705,70.0250909 L82.3112021,70.2003221 L99.3578806,70.2003221 L99.5904656,70.007658 Z M96.8037942,75.6675372 L96.8037942,88.5077503 L96.9805772,88.7369923 C97.1837886,89.0489908 97.3034575,89.4169397 97.3034575,89.8046725 C97.3034575,90.2961795 97.12006,90.7492225 96.8170035,91.0969496 L96.7218104,91.2041852 C96.3678467,91.5589248 95.8685714,91.78195 95.3223078,91.78195 C94.7818431,91.78195 94.2848655,91.5538718 93.9274801,91.1995201 C93.5711888,90.8362363 93.3497152,90.3478328 93.3497152,89.8049908 C93.3497152,89.4211074 93.4705479,89.0574356 93.6628776,88.7532253 L93.8361692,88.5251471 L93.8361692,77.4932466 L79.4562048,77.4932466 C79.169073,77.4885841 78.8726112,77.3751294 78.6507497,77.1524921 L72.0610517,70.581096 C71.8217138,70.375945 71.6627952,70.061609 71.6627952,69.7204764 L71.6627952,54.8730164 L71.491831,54.6484395 C71.2932847,54.345761 71.18216,53.9731471 71.18216,53.5938889 C71.18216,53.0942256 71.3674971,52.644674 71.6697778,52.3042974 L71.7568115,52.2009411 C72.1177678,51.8430882 72.6088868,51.619675 73.15522,51.619675 C73.6564449,51.619675 74.1083142,51.8054001 74.4638097,52.1146832 L74.5539518,52.201328 C74.9121927,52.5514026 75.130165,53.0503 75.130165,53.5942659 C75.130165,53.9381238 75.0330293,54.2792662 74.8609074,54.5640705 L74.6281742,54.8912279 L74.6273971,68.9708016 L80.208001,74.5374801 L95.6661893,74.5374801 C96.2925239,74.5374801 96.8041928,75.0464733 96.8041928,75.6677252 L96.8037942,75.6675372 Z M68.2159434,80.656809 C68.5046269,80.4928473 68.8453815,80.3902669 69.2028465,80.3902669 C69.7491399,80.3902669 70.24566,80.6109645 70.5973758,80.9606512 C70.9583321,81.3223834 71.1739768,81.810399 71.1739768,82.3535891 C71.1739768,82.8439322 70.9940806,83.2965873 70.6910141,83.637312 L70.5973748,83.7511521 C70.2457385,84.1004509 69.7452995,84.3203727 69.2028455,84.3203727 C68.809254,84.3203727 68.447124,84.2057567 68.1355631,84.0056487 L67.8313329,83.7670867 L63.9494288,83.7666981 C63.3227062,83.7666981 62.8078444,83.2596445 62.8078444,82.6344637 L62.8078444,49.2532914 L62.6135751,49.0256012 C62.3870586,48.7031088 62.2533947,48.3083535 62.2533947,47.8933667 C62.2533947,47.3540658 62.4787474,46.8551287 62.8416533,46.5051038 C63.1928917,46.15114 63.6906252,45.9230619 64.2299162,45.9230619 C64.750179,45.9230619 65.2268753,46.137145 65.5847581,46.4623628 L65.6212814,46.5047139 C65.9834015,46.8656702 66.204875,47.3536858 66.204875,47.8929768 C66.204875,48.2228496 66.1225043,48.5266919 65.9721418,48.8118841 L65.7747592,49.1118372 L65.7747592,80.8130095 L67.9844217,80.8130095 L68.2159434,80.656809 Z M77.1663946,38.799047 L86.0748706,38.799047 L91.4340607,33.4526882 C91.6419271,33.2518143 91.9259555,33.1228153 92.2414553,33.1228153 L106.358827,33.1228153 L106.596613,32.9421432 C106.90706,32.7350526 107.28589,32.6107187 107.688464,32.6107187 C108.233205,32.6107187 108.72511,32.833356 109.085281,33.1857582 C109.444685,33.5377823 109.668874,34.0374455 109.668874,34.5767066 C109.668874,35.1198867 109.444297,35.6145468 109.088782,35.9696445 C108.726662,36.3255479 108.232817,36.5462455 107.688483,36.5462455 C107.350842,36.5462455 107.027962,36.4592118 106.740044,36.2971898 L106.420277,36.0803812 L92.9971868,36.0803812 L87.6399861,41.4205731 C87.4309459,41.6230086 87.1496429,41.7523855 86.8337552,41.7523855 L75.3393324,41.7523855 C74.7126099,41.7523855 74.1974497,41.244556 74.1974497,40.6154761 L74.1974497,37.0855862 L64.8895136,37.0855862 L64.6676521,37.2479962 C64.3618703,37.4329454 63.9989644,37.544458 63.6302099,37.544458 C63.0819768,37.544458 62.5919719,37.3260978 62.2337907,36.9717461 C61.8782752,36.6154548 61.6548621,36.1223862 61.6548621,35.5788082 C61.6548621,35.0422328 61.8782752,34.548826 62.2337907,34.1924352 C62.5966866,33.8314789 63.0916948,33.6127308 63.6302099,33.6127308 C64.0374085,33.6127308 64.4170148,33.731236 64.7313111,33.9476566 L64.9644422,34.126777 L76.0281722,34.126777 C76.6595598,34.126777 77.1677672,34.6377098 77.1677672,35.2640843 L77.1673787,38.799047 L77.1663946,38.799047 Z M67.9999008,29.029086 L69.7265509,29.029086 L69.7265509,20.8362761 C69.7265509,20.550696 69.8388394,20.2542342 70.0568117,20.035874 L73.2102184,16.9046484 L73.2102184,12.1240587 C73.2102184,11.4953965 73.7203754,10.9871493 74.3518028,10.9871493 L93.3967761,10.9871493 L93.626018,10.8045375 C93.9422937,10.5951095 94.322676,10.4703876 94.7252294,10.4703876 C95.2396635,10.4703876 95.7214923,10.6794278 96.0731086,11.0093006 L96.1201228,11.0535943 C96.4752503,11.4106615 96.7037164,11.9010046 96.7037164,12.4356902 C96.7037164,12.9885883 96.4830187,13.4781059 96.1201228,13.8309158 C95.7684865,14.1895446 95.2715487,14.4121819 94.7252951,14.4121819 C94.3763842,14.4121819 94.0426222,14.3146573 93.7523871,14.1471915 L93.4500965,13.9416526 L76.1786222,13.9416526 L76.1786222,17.6557556 C76.1786222,17.9471645 76.0636183,18.2342963 75.8421448,18.4534323 L72.6960986,21.5909243 L72.6960986,30.8511162 C72.6960986,31.4731737 72.1816645,31.9856384 71.5576972,31.9856384 L68.4940098,31.9856384 L68.2659317,32.2172078 C67.9236254,32.5024 67.4764112,32.68346 66.9926528,32.68346 C66.5007579,32.68346 66.05238,32.5024 65.7046528,32.2039986 L65.5943039,32.106474 C65.2407281,31.753674 65.0188666,31.2571142 65.0188666,30.7131383 C65.0188666,30.1718978 65.2407281,29.6795753 65.5943039,29.3291525 C65.9537086,28.9685842 66.4463793,28.7459469 66.9927125,28.7459469 C67.2697483,28.7459469 67.5475501,28.8123879 67.7981675,28.9207902 L67.9999008,29.029086 Z M76.7965758,19.3322335 L87.6723129,19.3322335 C87.9652735,19.3322335 88.2512415,19.4433582 88.4731029,19.6663834 L92.6992628,23.8653887 L101.030432,23.8653887 L101.263165,23.6606256 C101.589536,23.410794 101.994795,23.272475 102.437374,23.272475 C102.930045,23.272475 103.380373,23.4550867 103.72617,23.754274 L103.838459,23.8479133 C104.189309,24.2042046 104.412722,24.6949357 104.412722,25.2408512 C104.412722,25.7824796 104.189309,26.2638707 103.838459,26.6244391 C103.476338,26.9838437 102.977053,27.2068689 102.436967,27.2068689 C102.099325,27.2068689 101.772556,27.1151721 101.493192,26.9683069 L101.271331,26.8233833 L91.9478781,26.8233833 C91.6560813,26.8183323 91.3631207,26.7072057 91.142423,26.4911829 L86.9209381,22.2875027 L76.750423,22.2875027 L76.5223449,22.452638 C76.2107342,22.6488568 75.8505537,22.7514274 75.4810234,22.7514274 C74.94406,22.7514274 74.4443768,22.5377321 74.0888813,22.1771638 C73.7240358,21.8158195 73.5052877,21.3278039 73.5052877,20.7881052 C73.5052877,20.2666785 73.7100507,19.796935 74.0442006,19.4437073 L74.080724,19.4044645 C74.4447936,19.0481732 74.9378522,18.8200951 75.4810224,18.8200951 C75.883556,18.8200951 76.2623865,18.9448169 76.5782444,19.1589 L76.7965758,19.3322335 Z M12.0573928,40.3038853 C12.4175733,40.6601766 12.6409864,41.1528573 12.6409864,41.6917503 C12.6409864,42.084178 12.5232571,42.4536885 12.3126653,42.7683827 L12.137822,42.9980125 L12.137822,47.7522434 L13.6683228,47.7522434 L16.4961736,44.9275756 L16.4961736,43.6554903 L16.3765047,43.6554903 L16.1826234,43.7398046 C15.9553211,43.828781 15.7093786,43.8781236 15.4680912,43.8781236 C14.9489921,43.8781236 14.4707342,43.6725847 14.1163328,43.3380469 L14.0786437,43.3026893 C13.7176874,42.941733 13.4931105,42.4533294 13.4931105,41.9117408 C13.4931105,41.3681728 13.7176874,40.8735028 14.0662103,40.5192009 C14.4236753,40.1644612 14.9213989,39.9418239 15.4677023,39.9418239 C15.9774714,39.9418239 16.4406103,40.1357053 16.7922067,40.4546964 L17.0156199,40.6990872 L18.3261989,40.6990872 C18.9568007,40.6990872 19.4653961,41.2073046 19.4653961,41.8359966 L19.4653961,45.6740357 C19.4634534,45.9611675 19.3484426,46.2506367 19.1324099,46.4709366 L15.2831311,50.3136506 C15.0725393,50.5529884 14.764032,50.7045266 14.4186224,50.7045266 L10.3070487,50.7053036 C9.68032611,50.7053036 9.1666579,50.1963104 9.1666579,49.5703836 L9.1666579,42.9647708 L8.99725542,42.744471 C8.80337407,42.4386891 8.68291936,42.0734557 8.68291936,41.6923076 C8.68291936,41.1533946 8.91022167,40.6658067 9.26961634,40.3044425 C9.61852718,39.9430983 10.119752,39.7220127 10.6559893,39.7220127 C11.2022828,39.7220127 11.7026821,39.9427104 12.0574813,40.3040546 L12.0573928,40.3038853 Z M46.6510696,34.2302228 C46.9568514,34.0277873 47.3263619,33.9073425 47.725812,33.9073425 C48.2561708,33.9073425 48.7453502,34.1187102 49.0993537,34.4687848 L49.117227,34.4823839 C49.4801229,34.8480053 49.6992689,35.3387363 49.6992689,35.8776095 C49.6992689,36.4122454 49.4805208,36.9118688 49.117227,37.2681601 C48.7543311,37.6197964 48.2639879,37.8431996 47.7262785,37.8431996 C47.3381279,37.8431996 46.9740583,37.7274099 46.660886,37.5315889 L46.4297044,37.3481914 L37.1959709,37.359848 L37.1959709,40.8827751 C37.1959709,41.5114373 36.6862018,42.0196845 36.0547844,42.0196845 L24.5613563,42.0196845 C24.2714991,42.0196845 23.9804881,41.9081719 23.7644554,41.6874842 L18.3975069,36.3519673 L4.05335062,36.3519673 C3.42118721,36.3519673 2.91146785,35.8460874 2.91146785,35.2170472 L2.91146785,34.5351503 C2.91146785,33.9072639 3.42123694,33.3990366 4.05335062,33.3990366 L19.1524625,33.3990366 C19.4454231,33.3990366 19.7379957,33.5105492 19.9579176,33.7316348 L25.3097471,39.066356 L34.2248874,39.066356 L34.2248874,35.5387538 C34.2334353,34.9190238 34.7432007,34.4154714 35.3667702,34.4154714 L46.4215481,34.406535 L46.6510696,34.2302228 Z M24.337606,50.6691571 C24.0061815,50.9924253 23.5686752,51.203793 23.0663164,51.2391535 L19.3880216,54.8965603 C19.1754902,55.1425127 18.8689225,55.2932651 18.5235129,55.2932651 L3.34184327,55.2932651 L3.11532675,55.4673326 C2.79827524,55.6771486 2.42877471,55.8022583 2.03093599,55.8022583 C1.47803794,55.8022583 0.983447531,55.579621 0.63252746,55.2252693 C0.269631545,54.8674164 0.0504855417,54.3712544 0.0504855417,53.8229816 C0.0504855417,53.2898974 0.269233677,52.7918058 0.63252746,52.4366086 C0.988042913,52.0822569 1.48188732,51.8596196 2.03093599,51.8596196 C2.40899069,51.8596196 2.77655162,51.9754093 3.08618288,52.1708423 L3.29871432,52.3414086 L17.7761566,52.3414086 L20.9633822,49.1650249 C20.9886379,48.7150953 21.1665935,48.3044054 21.4459569,47.9928047 L21.5349333,47.8812921 C21.8978292,47.5246129 22.394777,47.3058548 22.9364253,47.3058548 C23.4368644,47.3058548 23.891469,47.4888544 24.243523,47.79581 L24.3371623,47.8812901 C24.6934536,48.2375814 24.9102622,48.7329775 24.9102622,49.2769135 C24.9102622,49.8154386 24.6934536,50.3100787 24.3371623,50.6690556 L24.337606,50.6691571 Z M37.5528102,44.7702583 C37.8484962,44.5965788 38.1908024,44.4936203 38.5556379,44.4936203 C39.0747371,44.4936203 39.5537907,44.6964438 39.9104799,45.0282562 L39.952831,45.0659453 C40.3110718,45.4300149 40.5364246,45.9195723 40.5364246,46.4588831 C40.5364246,47.002849 40.3130114,47.4931425 39.952831,47.8541087 C39.5992551,48.2065208 39.0995919,48.424881 38.5560139,48.424881 C38.1651379,48.424881 37.8002924,48.3040483 37.4859464,48.1086053 L37.2042555,47.8851922 L34.5773283,47.8851922 L34.5773283,58.0427766 C34.5773283,58.6714387 34.0675592,59.1776966 33.4354455,59.1776966 L14.902728,59.1780851 L9.55557343,64.5030585 C9.50312043,64.9615423 9.29563595,65.3722322 8.99062991,65.6854244 C8.62850984,66.0358869 8.13739083,66.2558088 7.58565655,66.2558088 C7.0451919,66.2558088 6.54821428,66.0358969 6.19003311,65.6854244 C5.83451766,65.3174756 5.6126562,64.8271324 5.6126562,64.2878116 C5.6126562,63.747347 5.83451766,63.2499715 6.19003311,62.8975594 C6.54360895,62.5474848 7.0273475,62.3275629 7.55691055,62.3190187 L13.290296,56.6124894 C13.5028274,56.3731516 13.8093951,56.2251146 14.1517013,56.2251146 L31.6091791,56.2251146 L31.6091791,46.0625569 C31.6091791,45.4404994 32.1189482,44.9276368 32.7510619,44.9276368 L37.3199855,44.9276368 L37.5528102,44.7702583 Z M31.726622,73.3859599 C31.3683811,73.7445887 30.8698816,73.9652764 30.3344799,73.9652764 C29.9676948,73.9652764 29.6180081,73.8630939 29.3223022,73.6781447 L28.9873765,73.4302526 L11.8720656,73.4306413 L11.6502042,73.5825574 C11.3564678,73.7535215 11.0188166,73.8471599 10.6679662,73.8471599 C10.1236124,73.8471599 9.62972817,73.6241347 9.27343687,73.2740601 C8.91054096,72.9107763 8.68323865,72.4250882 8.68323865,71.8811223 C8.68323865,71.3332771 8.90665179,70.8468629 9.26993563,70.486593 C9.61884647,70.1341809 10.1200713,69.9115535 10.6683442,69.9115535 C11.088364,69.9115535 11.4850589,70.05221 11.8067456,70.2837795 L12.0387029,70.4753333 L29.0814028,70.4753333 L29.314136,70.3140871 C29.6086482,70.1341908 29.9606724,70.0254036 30.3348678,70.0254036 C30.8220976,70.0254036 31.273201,70.2068516 31.6181928,70.5106938 L31.7265921,70.5992813 C32.0840571,70.9540209 32.3074603,71.4509687 32.3074603,71.9902298 C32.3074603,72.5361353 32.0840472,73.032347 31.7265921,73.3858532 L31.726622,73.3859599 Z M27.8400429,29.4771855 L30.3795385,31.9999706 L32.5515029,31.9999706 L32.5515029,31.416377 L32.3793751,31.1882988 C32.1971513,30.8902853 32.079034,30.5289411 32.079034,30.1504587 C32.079034,29.6111578 32.3036109,29.1168956 32.6571868,28.7621958 C33.0099868,28.4012395 33.5073225,28.1801539 34.0528102,28.1801539 C34.5944387,28.1801539 35.0910482,28.4070583 35.4496273,28.7637475 C35.799314,29.1165475 36.0270042,29.6057169 36.0270042,30.1501205 C36.0270042,30.5472132 35.9026703,30.9209908 35.6975193,31.2310299 L35.5172351,31.4606598 L35.5172351,33.8183294 C35.5172351,34.4469915 35.007466,34.9552388 34.3835086,34.9552388 L29.6184358,34.9552388 C29.3320799,34.9509649 29.0363939,34.8394491 28.8129807,34.6168217 L26.2855207,32.0983137 L25.134288,32.0983137 L24.9116507,32.244799 C24.6159648,32.4254711 24.2616131,32.5253262 23.9123044,32.5253262 C23.3625196,32.5253262 22.8682973,32.3003613 22.512006,31.9463976 C22.159206,31.5897184 21.9377424,31.0970377 21.9377424,30.5561454 C21.9377424,30.0168445 22.1596038,29.521886 22.512006,29.1674846 C22.8682973,28.8135209 23.3621417,28.5901077 23.9123044,28.5901077 C24.2996791,28.5901077 24.6699655,28.7109404 24.988141,28.9153155 L25.2733331,29.1426178 L27.0349957,29.1426178 C27.3318454,29.1422293 27.6189772,29.2541304 27.8400628,29.4771557 L27.8400429,29.4771855 Z" id="Shape"></path>
            </g>
            <g id="eye" transform="translate(287.000000, 62.000000)" fill="#000000">
                <path d="M97.2755102,8.15612245 C94.5937755,8.94095918 90.3104082,10.1287755 89.7153061,9.85571429 C67.544898,-0.338367347 34.372449,-7.71979592 2.19489796,14.9470408 C0.918979592,15.8458776 0.399591837,17.5833673 1.13581633,18.9609184 C1.70262245,20.0212245 2.76571429,20.5919388 3.84663265,20.5919388 C4.45768367,20.5919388 5.07469388,20.4105816 5.61122449,20.0311122 C35.4408163,-1.05256122 66.422449,5.88723469 87.1571429,15.4197857 C90.5244898,16.9698878 94.6228571,16.0479694 98.0795918,14.7254286 C98.4506837,14.5835306 98.7053878,14.2419286 98.7480408,13.8473163 L99.1900816,9.76609184 C99.3064694,8.69823469 98.303602,7.85486735 97.2751837,8.15619388 L97.2755102,8.15612245 Z" id="Path"></path>
                <path d="M98.7755102,25.1826531 C94.3147959,25.1702969 89.927449,23.147449 87.4612245,21.8395918 C86.7030918,21.4366122 85.9565306,21.042398 85.2267347,20.682449 C72.1614286,14.2367347 38.1859184,1.77836735 5.00326531,25.2328571 C4.19252041,25.8072347 3.70897959,26.7391837 3.70897959,27.7332653 C3.70897959,28.7273673 4.19247959,29.6592857 5.00326531,30.2336735 C19.5726531,40.5316327 34.295102,43.905102 47.3328571,43.905102 C51.1777551,43.905102 54.8683673,43.6013673 58.3736735,43.1055204 C49.7739796,49.9406224 44.1430612,57.1483776 39.5542857,63.0453163 C32.7877551,71.7438878 28.317551,77.4891939 19.3746939,77.4891939 C12.0879592,77.4891939 6.15836735,71.5612347 6.15836735,64.2749082 C6.15836735,58.7830714 10.6254082,54.3148061 16.1184694,54.3148061 C19.9302041,54.3148061 23.0723469,57.2289898 23.4371429,60.9478673 C22.0755102,59.3072551 20.0208163,58.2613367 17.722449,58.2613367 C13.6228571,58.2613367 10.2997959,61.584398 10.2997959,65.6839898 C10.2997959,69.7835816 13.5128571,73.0173571 18.6483673,73.0432755 C24.6277551,73.0727714 29.5963265,67.8036837 29.5963265,61.6708265 C29.5963265,54.239398 23.5495918,48.1922551 16.1177551,48.1922551 C7.25020408,48.1922551 0.0351020408,55.4068469 0.0351020408,64.2749082 C0.0351020408,74.9381735 8.71061224,83.6116429 19.3738776,83.6116429 C31.3106122,83.6116429 37.3687755,75.8238878 44.3861224,66.8045 C50.4671429,58.9883776 57.7555102,49.649398 71.0606122,41.776949 C68.2676531,48.4100102 66.1295918,58.9177653 67.662551,67.3381735 C68.0631429,69.5336837 70.8118367,70.2989898 72.2567347,68.5981735 L86.2159184,52.1716429 C87.2040408,51.0085816 86.8381327,49.2032755 85.453,48.5607245 C80.9213673,46.4581735 80.5426939,40.4265408 80.7523878,36.844398 C81.0756531,36.7025 81.3781837,36.5554184 81.7062347,36.4147143 C83.0005204,35.8467143 84.187051,35.2943061 85.2266429,34.7812449 C85.9564694,34.4213163 86.6999082,34.027102 87.4575612,33.6253265 C89.9260306,32.3163469 95.6152143,30.0718571 98.7738878,30.0718571 C100.364704,30.0710599 100.364704,25.1854286 98.7742863,25.1818571 L98.7755102,25.1826531 Z M60.6020414,25.6920612 L55.6390816,25.6920612 C55.6378858,25.6785092 55.6342985,25.6649571 55.6331027,25.6518031 L60.3537149,24.1176194 C60.4872455,24.6254357 60.5701537,25.1507827 60.6020414,25.6921092 L60.6020414,25.6920612 Z M60.6020408,26.6738061 C60.5701531,27.215102 60.4856531,27.7404388 60.3533163,28.2487041 L55.6132143,26.7080918 C55.6156058,26.6969306 55.6168016,26.6849735 55.6179973,26.6738061 L60.6020408,26.6738061 Z M60.0523776,23.1828878 L55.3648265,24.7063571 C55.3576517,24.6904133 55.3488827,24.6744694 55.3417082,24.6585255 L59.3260959,21.7639337 C59.6126878,22.2083724 59.8550347,22.6834949 60.0523776,23.1829133 L60.0523776,23.1828878 Z M58.7545204,20.9643163 L54.8031939,23.8346224 C54.7884459,23.8174827 54.772502,23.8003429 54.7565582,23.7832031 L57.6256398,19.8343255 C58.0365888,20.1755296 58.4152622,20.552601 58.7544153,20.9643255 L58.7545204,20.9643163 Z M56.8280918,19.2635 L53.9956429,23.1621735 C53.9697337,23.1474255 53.9454194,23.1302857 53.9199092,23.1167337 L55.4074602,18.5384684 C55.9061031,18.7345806 56.3812357,18.9769276 56.8280918,19.2635194 L56.8280918,19.2635 Z M52.8974796,17.9875816 C53.4387755,18.0194694 53.9641122,18.1039694 54.4723776,18.2363061 L53.0031939,22.7583469 C52.9677184,22.7495778 52.9334398,22.7400112 52.8979694,22.7324378 L52.8974796,17.9875816 Z M12.3117653,27.7320714 C22.5668673,21.3879898 32.8270714,18.603398 42.3311531,17.8982959 C40.5506429,20.1132959 39.4803367,22.9221735 39.4803367,25.9862551 C39.4803367,31.2246224 42.6029898,35.725949 47.0831939,37.7556429 C36.2954388,37.7062173 24.2995204,35.148398 12.3117653,27.7317653 L12.3117653,27.7320714 Z M44.7617653,29.1829898 L49.1722755,27.7504388 C49.194198,27.7918929 49.2213031,27.83255 49.2456173,27.8728061 L45.4876582,30.6036224 C45.2014643,30.1575918 44.9575255,29.6824694 44.7618112,29.1830102 L44.7617653,29.1829898 Z M47.1888061,32.5296224 C46.7774592,32.1904184 46.3991837,31.8121531 46.0600306,31.4008469 L49.8606429,28.6397245 C49.8913347,28.6680245 49.9220265,28.6971224 49.9535163,28.7242265 L47.1888061,32.5296224 Z M47.985602,33.1024082 L50.7797857,29.2563878 C50.8116735,29.2711357 50.8435612,29.2882755 50.8766449,29.3018276 L49.4062367,33.8286643 C48.906798,33.6317561 48.4328592,33.3878173 47.985602,33.1024194 L47.985602,33.1024082 Z M51.915398,34.3783265 C51.374102,34.3464388 50.8487653,34.2619388 50.3405,34.129602 L51.8296837,29.5477653 C51.8579837,29.5513527 51.8870816,29.5525485 51.9153816,29.5549401 L51.915398,34.3783265 Z M48.8307041,26.7990408 C48.8318998,26.8090057 48.8330956,26.8173765 48.8354872,26.8273408 L44.4604872,28.2491776 C44.3281505,27.7409633 44.2436505,27.2156061 44.2117628,26.6742796 L47.552375,26.673881 C46.9401301,26.4949116 46.4000281,26.149728 45.9803342,25.6917382 L44.2121709,25.6917382 C44.2440587,25.1504422 44.3285587,24.6251055 44.4608954,24.1168402 L45.2202219,24.362779 C45.1233628,24.0454933 45.0707526,23.7090851 45.0707526,23.3611055 C45.0707526,23.3351963 45.0743399,23.3096861 45.0743399,23.283778 L44.7622379,23.1821361 C44.9224726,22.7731769 45.1221664,22.3861361 45.3437889,22.0126463 C45.5382991,21.5534627 45.8324726,21.1480851 46.1947889,20.8164218 C46.4997174,20.4636667 46.8289521,20.1320341 47.1888909,19.8354729 L47.3834011,20.103728 C47.7202174,19.9861463 48.0813399,19.9175851 48.4560542,19.9104116 L47.9857072,19.2626871 C48.4313399,18.9760953 48.9064623,18.7337484 49.4063195,18.5364422 L49.953595,20.2188912 C50.5279726,20.4807688 51.0190032,20.8937178 51.3725746,21.4090953 L50.3402277,18.2338912 C50.8484419,18.1015545 51.3750236,18.0170545 51.9151256,17.9851667 L51.9151256,22.6762892 C51.9127341,22.6762892 51.9103424,22.6762892 51.9079509,22.677485 C51.9521948,22.8979136 51.975315,23.1255054 51.975315,23.359485 C51.97651,25.1655054 50.5941917,26.6435666 48.8308244,26.7989748 L48.8307041,26.7990408 Z M52.8972347,34.378352 L52.8972347,29.5023061 C52.9191571,29.497523 52.9414786,29.4911449 52.963402,29.4863622 L54.4720755,34.1296276 C53.9650551,34.2623622 53.4385041,34.3468622 52.8971776,34.378352 L52.8972347,34.378352 Z M55.4076429,33.8274694 L53.8841735,29.1387959 C53.9001173,29.1300267 53.9136694,29.1204602 53.9284173,29.1116918 L56.8265806,33.1012837 C56.380948,33.3878755 55.9070194,33.6318143 55.407601,33.8275286 L55.4076429,33.8274694 Z M57.6249898,32.5296347 L54.7032551,28.5085918 C54.71322,28.4986269 54.7215908,28.4878653 54.7303592,28.4779 L58.7542367,31.4008592 C58.4150327,31.8122061 58.0363592,32.1904816 57.6250531,32.5296347 L57.6249898,32.5296347 Z M55.2935612,27.6743061 C55.2983444,27.6631449 55.3035262,27.6535796 55.3095051,27.6424184 L60.0520561,29.1841531 C59.85475,29.6835918 59.6124031,30.1575306 59.3258112,30.6047653 L55.2935612,27.6743061 Z M59.6294796,36.7061429 C63.0701939,34.3830816 65.333051,30.4477755 65.333051,25.9847143 C65.333051,23.6302245 64.6937041,21.4295102 63.5943776,19.5278776 C73.3300918,21.3231837 85.1974388,27.5692041 85.5066224,27.7317551 C85.1969082,27.8935816 70.345398,34.6517551 59.6300918,36.7061429 L59.6294796,36.7061429 Z" id="Shape"></path>
            </g>
        </g>
    </g>
</svg>